<?xml version="1.0" encoding="utf-8"?>
<!-- Generator: Adobe Illustrator 21.1.0, SVG Export Plug-In . SVG Version: 6.00 Build 0)  -->
<svg version="1.1" id="Layer_1" xmlns="http://www.w3.org/2000/svg" xmlns:xlink="http://www.w3.org/1999/xlink" x="0px" y="0px"
	 viewBox="0 0 1226.3 437.6" style="enable-background:new 0 0 1226.3 437.6;" xml:space="preserve">
<style type="text/css">
	.st0{fill:#282828;}
	.st1{fill:url(#SVGID_1_);}
	.st2{fill:url(#SVGID_2_);}
	.st3{fill:url(#SVGID_3_);}
	.st4{fill:url(#SVGID_4_);}
	.st5{fill:url(#SVGID_5_);}
	.st6{fill:url(#SVGID_6_);}
	.st7{fill:url(#SVGID_7_);}
	.st8{fill:url(#SVGID_8_);}
	.st9{fill:url(#SVGID_9_);}
	.st10{fill:url(#SVGID_10_);}
	.st11{font-family:'AbrilFatface-Regular';}
	.st12{font-size:51.9358px;}
	.st13{font-size:37.5092px;}
</style>
<rect y="239.7" class="st0" width="1226.3" height="1.4"/>
<rect x="121.2" y="210.6" class="st0" width="1.4" height="59.3"/>
<rect x="1113.7" y="210.6" class="st0" width="1.4" height="59.3"/>
<rect x="369.3" y="210.6" class="st0" width="1.4" height="59.3"/>
<rect x="616" y="212.1" class="st0" width="1.4" height="59.3"/>
<rect x="864.2" y="210.6" class="st0" width="1.4" height="59.3"/>
<rect x="131.3" y="230.8" class="st0" width="1.4" height="18.9"/>
<rect x="142.8" y="230.8" class="st0" width="1.4" height="18.9"/>
<rect x="154.4" y="230.9" class="st0" width="1.4" height="18.9"/>
<rect x="165.9" y="230.9" class="st0" width="1.4" height="18.9"/>
<rect x="177.4" y="230.9" class="st0" width="1.4" height="18.9"/>
<rect x="189" y="230.9" class="st0" width="1.4" height="18.9"/>
<rect x="200.5" y="231" class="st0" width="1.4" height="18.9"/>
<rect x="212.1" y="231" class="st0" width="1.4" height="18.9"/>
<rect x="222.9" y="230.8" class="st0" width="1.4" height="18.9"/>
<rect x="233" y="230.8" class="st0" width="1.4" height="18.9"/>
<rect x="244.5" y="230.9" class="st0" width="1.4" height="18.9"/>
<rect x="256.1" y="230.9" class="st0" width="1.4" height="18.9"/>
<rect x="267.6" y="230.9" class="st0" width="1.4" height="18.9"/>
<rect x="279.2" y="230.9" class="st0" width="1.4" height="18.9"/>
<rect x="290.7" y="231" class="st0" width="1.4" height="18.9"/>
<rect x="302.2" y="231" class="st0" width="1.4" height="18.9"/>
<rect x="313.1" y="231" class="st0" width="1.4" height="18.9"/>
<rect x="324.6" y="231" class="st0" width="1.4" height="18.9"/>
<rect x="336.1" y="230.9" class="st0" width="1.4" height="18.9"/>
<rect x="347.7" y="230.9" class="st0" width="1.4" height="18.9"/>
<rect x="359.2" y="231" class="st0" width="1.4" height="18.9"/>
<rect x="382.7" y="230.1" class="st0" width="1.4" height="18.9"/>
<rect x="392.8" y="230.1" class="st0" width="1.4" height="18.9"/>
<rect x="404.3" y="230.2" class="st0" width="1.4" height="18.9"/>
<rect x="414.4" y="230.2" class="st0" width="1.4" height="18.9"/>
<rect x="424.5" y="230.2" class="st0" width="1.4" height="18.9"/>
<rect x="436" y="230.2" class="st0" width="1.4" height="18.9"/>
<rect x="447.6" y="230.2" class="st0" width="1.4" height="18.9"/>
<rect x="459.1" y="230.2" class="st0" width="1.4" height="18.9"/>
<rect x="469.9" y="230.1" class="st0" width="1.4" height="18.9"/>
<rect x="480" y="230.1" class="st0" width="1.4" height="18.9"/>
<rect x="490.1" y="230.2" class="st0" width="1.4" height="18.9"/>
<rect x="500.2" y="230.2" class="st0" width="1.4" height="18.9"/>
<rect x="511.8" y="230.2" class="st0" width="1.4" height="18.9"/>
<rect x="523.3" y="230.2" class="st0" width="1.4" height="18.9"/>
<rect x="534.9" y="230.2" class="st0" width="1.4" height="18.9"/>
<rect x="546.4" y="230.2" class="st0" width="1.4" height="18.9"/>
<rect x="557.2" y="230.2" class="st0" width="1.4" height="18.9"/>
<rect x="568.8" y="230.2" class="st0" width="1.4" height="18.9"/>
<rect x="580.3" y="230.2" class="st0" width="1.4" height="18.9"/>
<rect x="591.9" y="230.2" class="st0" width="1.4" height="18.9"/>
<rect x="603.4" y="230.3" class="st0" width="1.4" height="18.9"/>
<rect x="630.1" y="230" class="st0" width="1.4" height="18.9"/>
<rect x="641.6" y="230" class="st0" width="1.4" height="18.9"/>
<rect x="653.2" y="230.1" class="st0" width="1.4" height="18.9"/>
<rect x="663.3" y="230.1" class="st0" width="1.4" height="18.9"/>
<rect x="674.8" y="230.1" class="st0" width="1.4" height="18.9"/>
<rect x="684.9" y="230.1" class="st0" width="1.4" height="18.9"/>
<rect x="696.4" y="230.2" class="st0" width="1.4" height="18.9"/>
<rect x="708" y="230.2" class="st0" width="1.4" height="18.9"/>
<rect x="718.8" y="230" class="st0" width="1.4" height="18.9"/>
<rect x="728.9" y="230" class="st0" width="1.4" height="18.9"/>
<rect x="740.4" y="230.1" class="st0" width="1.4" height="18.9"/>
<rect x="752" y="230.1" class="st0" width="1.4" height="18.9"/>
<rect x="763.5" y="230.1" class="st0" width="1.4" height="18.9"/>
<rect x="773.6" y="230.1" class="st0" width="1.4" height="18.9"/>
<rect x="785.2" y="230.2" class="st0" width="1.4" height="18.9"/>
<rect x="796.7" y="230.2" class="st0" width="1.4" height="18.9"/>
<rect x="807.5" y="230.2" class="st0" width="1.4" height="18.9"/>
<rect x="817.6" y="230.2" class="st0" width="1.4" height="18.9"/>
<rect x="829.2" y="230.1" class="st0" width="1.4" height="18.9"/>
<rect x="839.3" y="230.1" class="st0" width="1.4" height="18.9"/>
<rect x="850.8" y="230.2" class="st0" width="1.4" height="18.9"/>
<rect x="875.7" y="230.7" class="st0" width="1.4" height="18.9"/>
<rect x="887.2" y="230.7" class="st0" width="1.4" height="18.9"/>
<rect x="898.8" y="230.8" class="st0" width="1.4" height="18.9"/>
<rect x="910.3" y="230.8" class="st0" width="1.4" height="18.9"/>
<rect x="921.9" y="230.8" class="st0" width="1.4" height="18.9"/>
<rect x="933.4" y="230.8" class="st0" width="1.4" height="18.9"/>
<rect x="944.9" y="230.9" class="st0" width="1.4" height="18.9"/>
<rect x="956.5" y="230.9" class="st0" width="1.4" height="18.9"/>
<rect x="967.3" y="230.7" class="st0" width="1.4" height="18.9"/>
<rect x="977.4" y="230.7" class="st0" width="1.4" height="18.9"/>
<rect x="988.9" y="230.8" class="st0" width="1.4" height="18.9"/>
<rect x="1000.5" y="230.8" class="st0" width="1.4" height="18.9"/>
<rect x="1012" y="230.8" class="st0" width="1.4" height="18.9"/>
<rect x="1023.6" y="230.8" class="st0" width="1.4" height="18.9"/>
<rect x="1035.1" y="230.9" class="st0" width="1.4" height="18.9"/>
<rect x="1046.7" y="230.9" class="st0" width="1.4" height="18.9"/>
<rect x="1057.5" y="230.9" class="st0" width="1.4" height="18.9"/>
<rect x="1069" y="230.9" class="st0" width="1.4" height="18.9"/>
<rect x="1080.6" y="230.8" class="st0" width="1.4" height="18.9"/>
<rect x="1092.1" y="230.8" class="st0" width="1.4" height="18.9"/>
<rect x="1103.6" y="230.9" class="st0" width="1.4" height="18.9"/>
<linearGradient id="SVGID_1_" gradientUnits="userSpaceOnUse" x1="113.9703" y1="168.3324" x2="128.3969" y2="168.3324" gradientTransform="matrix(1 0 0 -1 0 408)">
	<stop  offset="0" style="stop-color:#F78F1E"/>
	<stop  offset="1" style="stop-color:#F15D2B"/>
</linearGradient>
<circle class="st1" cx="121.2" cy="239.7" r="7.2"/>
<linearGradient id="SVGID_2_" gradientUnits="userSpaceOnUse" x1="363.5507" y1="167.7005" x2="377.9773" y2="167.7005" gradientTransform="matrix(1 0 0 -1 0 408)">
	<stop  offset="0" style="stop-color:#F78F1E"/>
	<stop  offset="1" style="stop-color:#F15D2B"/>
</linearGradient>
<circle class="st2" cx="370.8" cy="240.3" r="7.2"/>
<linearGradient id="SVGID_3_" gradientUnits="userSpaceOnUse" x1="609.5245" y1="167.7005" x2="623.951" y2="167.7005" gradientTransform="matrix(1 0 0 -1 0 408)">
	<stop  offset="0" style="stop-color:#F78F1E"/>
	<stop  offset="1" style="stop-color:#F15D2B"/>
</linearGradient>
<circle class="st3" cx="616.7" cy="240.3" r="7.2"/>
<linearGradient id="SVGID_4_" gradientUnits="userSpaceOnUse" x1="857.6622" y1="167.3932" x2="872.0888" y2="167.3932" gradientTransform="matrix(1 0 0 -1 0 408)">
	<stop  offset="0" style="stop-color:#F78F1E"/>
	<stop  offset="1" style="stop-color:#F15D2B"/>
</linearGradient>
<circle class="st4" cx="864.9" cy="240.6" r="7.2"/>
<linearGradient id="SVGID_5_" gradientUnits="userSpaceOnUse" x1="1107.964" y1="167.3932" x2="1122.3906" y2="167.3932" gradientTransform="matrix(1 0 0 -1 0 408)">
	<stop  offset="0" style="stop-color:#F78F1E"/>
	<stop  offset="1" style="stop-color:#F15D2B"/>
</linearGradient>
<circle class="st5" cx="1115.2" cy="240.6" r="7.2"/>
<linearGradient id="SVGID_6_" gradientUnits="userSpaceOnUse" x1="73.6551" y1="289.6443" x2="145.3121" y2="289.6443" gradientTransform="matrix(1 0 0 -1 0 408)">
	<stop  offset="0" style="stop-color:#F78D1E"/>
	<stop  offset="1" style="stop-color:#F15D2B"/>
</linearGradient>
<circle class="st6" cx="109.5" cy="118.4" r="35.8"/>
<g id="Shape_1_1_">
	<g>
		<path class="st0" d="M128.7,99.3c-5.1-5.1-12-8-19.2-8c-7.3,0-14.1,2.8-19.2,8c-10.6,10.6-10.6,27.9,0,38.5c5.1,5.1,12,8,19.2,8
			c7.3,0,14.1-2.8,19.2-8c5.1-5.1,8-12,8-19.2C136.7,111.2,133.8,104.4,128.7,99.3z M92.5,101.5c4.5-4.6,10.6-7.1,17-7.1
			c6.4,0,12.5,2.5,17,7.1c3.6,3.6,5.9,8.1,6.7,13l-8.4,8.3c-0.8-0.5-1.7-0.7-2.7-0.7c-1.9,0-3.6,1-4.6,2.5l-12.4-3.9
			c0,0,0-0.1,0-0.1c0-3-2.5-5.5-5.5-5.5c-3,0-5.5,2.5-5.5,5.5c0,1,0.3,1.9,0.7,2.7l-6.5,6.7C83.4,120.8,84.8,109.2,92.5,101.5z
			 M124.5,127.5c0,1.3-1.1,2.4-2.4,2.4s-2.4-1.1-2.4-2.4c0-1.3,1.1-2.4,2.4-2.4S124.5,126.2,124.5,127.5z M102,120.5
			c0,1.3-1.1,2.4-2.4,2.4s-2.4-1.1-2.4-2.4c0-1.3,1.1-2.4,2.4-2.4C101,118.1,102,119.1,102,120.5z M126.5,135.5
			c-4.5,4.6-10.6,7.1-17,7.1c-6.4,0-12.5-2.5-17-7.1c-0.9-0.9-1.7-1.9-2.4-2.9l7-7.3c0.8,0.4,1.6,0.6,2.6,0.6c1.9,0,3.6-1,4.6-2.5
			l12.4,3.9c0,0,0,0.1,0,0.1c0,3,2.5,5.5,5.5,5.5c3,0,5.5-2.5,5.5-5.5c0-0.9-0.2-1.8-0.6-2.6l6.6-6.5
			C133.6,124.9,131.1,131,126.5,135.5z M115.4,101.7l1-2.9c-7.1-2.5-15-1-20.6,3.9l2,2.3C102.6,100.9,109.4,99.6,115.4,101.7z
			 M123.1,102.6c-0.9-0.7-1.8-1.4-2.7-2l-1.6,2.6c0.8,0.5,1.6,1.1,2.3,1.7L123.1,102.6z M102.9,135l-1.1,2.9c2.5,1,5.1,1.5,7.8,1.5
			c1.5,0,2.9-0.2,4.4-0.5l-0.6-3C109.7,136.6,106.1,136.3,102.9,135z M148.3,143.4l-2.2,2.2l-5.6-6c6.6-9.6,8.2-21.7,4.8-32.5
			l4.4-4.3c0.8,0.4,1.7,0.7,2.6,0.7c3,0,5.5-2.5,5.5-5.5c0-0.9-0.2-1.8-0.6-2.5l9.5-9.3v4.8h3.1v-10h-10V84h4.7l-9.4,9.2
			c-0.8-0.5-1.8-0.8-2.8-0.8c-3,0-5.5,2.5-5.5,5.5c0,1,0.3,1.9,0.7,2.7l-3.4,3.3c-1.8-4.3-4.5-8.4-8-12c-14.6-14.6-38.4-14.6-53,0
			c-13,13-14.4,33.3-4.3,47.9l-2.6,2.7c-0.8-0.4-1.6-0.6-2.6-0.6c-3,0-5.5,2.5-5.5,5.5c0,3,2.5,5.5,5.5,5.5s5.5-2.5,5.5-5.5
			c0-1-0.3-1.9-0.7-2.7l2.3-2.4c0.7,0.9,1.5,1.8,2.4,2.6c7.3,7.3,16.9,11,26.5,11c7.4,0,14.7-2.2,21.1-6.5l5.6,6l-2.3,2.3l27.1,27
			l14.4-14.4L148.3,143.4z M152.2,95.5c1.3,0,2.4,1.1,2.4,2.4c0,1.3-1.1,2.4-2.4,2.4c-1.3,0-2.4-1.1-2.4-2.4
			C149.8,96.6,150.9,95.5,152.2,95.5z M73.6,149.9c-1.3,0-2.4-1.1-2.4-2.4c0-1.3,1.1-2.4,2.4-2.4s2.4,1.1,2.4,2.4
			C76,148.8,74.9,149.9,73.6,149.9z M85.2,142.8c-13.4-13.4-13.4-35.2,0-48.7c6.7-6.7,15.5-10.1,24.3-10.1s17.6,3.4,24.3,10.1
			c13.4,13.4,13.4,35.2,0,48.7C120.4,156.2,98.6,156.2,85.2,142.8z M133.1,147.7c1-0.8,2-1.7,2.9-2.6c0.9-0.9,1.8-1.9,2.6-2.8
			l5.3,5.6l-5.5,5.5L133.1,147.7z M160.9,180.4l-22.7-22.6l10.1-10.1l22.7,22.6L160.9,180.4z M143.8,156.7l2.2,2.2l2.2-2.2l8.5,8.5
			l2.2-2.2l-10.7-10.7L143.8,156.7z M161.6,165.6l-2.2,2.2l2.3,2.3l2.2-2.2L161.6,165.6z M84.8,160.9h3.1v-3.4h-3.1V160.9z
			 M84.8,179.8h3.1v-3.4h-3.1V179.8z M110.3,167.4h3.1v-3.4h-3.1V167.4z M154.6,139.6h3.1v-3.4h-3.1V139.6z M161.3,112.7v-3.4h-3.1
			v3.4H161.3z M168.4,126.9h3.1v-3.4h-3.1V126.9z"/>
	</g>
</g>
<linearGradient id="SVGID_7_" gradientUnits="userSpaceOnUse" x1="344.4527" y1="61.9375" x2="406.907" y2="61.9375" gradientTransform="matrix(1 0 0 -1 0 408)">
	<stop  offset="0" style="stop-color:#F89A1C"/>
	<stop  offset="1" style="stop-color:#F15D2B"/>
</linearGradient>
<polyline class="st7" points="360.6,352.2 360.2,352.8 356.4,364.6 344.5,395.4 345.4,398.7 348.9,398.7 365.5,378 376.9,361.6 
	391.2,334.1 393.3,330.6 396.6,328.9 396.6,325.1 403.9,319.8 406.9,305 406.9,295.6 404.8,293.5 399.9,295.6 389.1,302.2 
	385.5,305.4 383,314 383,318.1 378.8,319.8 378.8,321.7 378.8,325.1 375.7,331.5 369.2,338.8 364.8,344.4 360.6,352.2 "/>
<g id="Forma_1">
	<g>
		<path class="st0" d="M344.2,384.1c0.4-0.7,0.2-1.7-0.5-2.1c-11.7-6.9-18.3-17.4-18.3-28.9c0-19.9,20.4-36,45.5-36
			c2.1,0,4.3,0.1,6.3,0.3c0.9,0.1,1.6-0.5,1.7-1.4c0.1-0.9-0.5-1.6-1.4-1.7c-2.2-0.2-4.4-0.4-6.7-0.4c-12.9,0-25.1,4-34.2,11.3
			c-9.3,7.4-14.4,17.3-14.4,27.8c0,6.3,1.9,12.5,5.5,18c3.4,5.3,8.4,10,14.4,13.5c0.2,0.1,0.5,0.2,0.8,0.2
			C343.3,384.9,343.9,384.6,344.2,384.1z M405.1,325.4c-0.7-0.5-1.6-0.4-2.2,0.2c-0.5,0.7-0.4,1.6,0.2,2.2
			c8.4,6.8,13.1,15.8,13.1,25.3v0c0,0.8-0.3,1.5-0.9,2c-0.6,0.5-1.4,0.8-2.2,0.7c-7.3-1.1-14.2-1.5-19.5-1.3
			c-6.8,0.3-10.3,1.7-11,4.3c-0.5,1.9,0.6,3.8,3.3,6.1c2.1,1.7,5.1,3.5,8.9,5.5c2.6,1.3,4.1,3.8,4.1,6.6c0,2.9-1.5,5.3-4.1,6.6
			c-7.2,3.6-15.6,5.5-24.1,5.5c-2.7,0-5.4-0.2-8-0.6c-0.8-0.1-1.6,0.5-1.8,1.3c-0.1,0.8,0.5,1.6,1.3,1.7c2.8,0.4,5.6,0.6,8.5,0.6
			c9,0,17.9-2,25.5-5.8c3.6-1.8,5.8-5.4,5.8-9.3c0-4-2.2-7.6-5.8-9.4c-9.2-4.6-10.8-7.4-10.7-8c0.1-0.5,1.8-1.7,8.1-2
			c5.1-0.2,11.8,0.2,18.9,1.2c1.7,0.2,3.4-0.3,4.7-1.4c1.3-1.1,2-2.7,2-4.4v-0.1C419.4,342.6,414.3,332.8,405.1,325.4z M392.2,333.5
			c0.3,0.1,0.7,0.2,1,0.2c0.3,0,0.6,0,0.9-0.1c0.8-0.2,1.5-0.8,1.9-1.5l1.6-2.9c0.4-0.7,0.5-1.6,0.3-2.4c-0.1-0.2-0.1-0.4-0.2-0.6
			c2.8-1.4,6.7-3.9,8.5-7.5c0.7-1.4,1.2-3.1,1.5-4.9c0,0,0-0.1,0-0.1c0.3-2,0.5-4.1,0.5-6.2c0,0,0-0.1,0-0.1c0-0.1,0-0.2,0-0.3
			c0.1-5.3-0.6-10.4-0.9-12.8c0,0,0-0.1,0-0.1c0,0,0-0.1,0-0.1c0,0,0-0.1,0-0.1c0-0.3-0.1-0.6-0.3-0.8c-0.2-0.3-0.5-0.6-0.8-0.8
			c-0.6-0.3-1.3-0.4-1.9-0.1c-0.1,0-0.2,0.1-0.2,0.1c0,0,0,0,0,0c-2.1,0.9-6.4,2.7-10.6,5.2c0,0,0,0-0.1,0c-0.1,0.1-0.3,0.2-0.4,0.2
			c-1.6,1-3.3,2.1-4.7,3.2c0,0-0.1,0.1-0.1,0.1c-1.9,1.5-3.5,3.1-4.6,4.8c-2.2,3.4-2.3,8-2.1,11.2c-1.1,0.1-2,0.6-2.6,1.6l-1.6,2.9
			c-0.8,1.4-0.4,3.1,0.7,4c-2.6,3.2-7.9,10.2-13.1,19c-0.4,0.7-0.2,1.7,0.5,2.1c0.7,0.4,1.7,0.2,2.1-0.5c5.4-9,10.7-16,13.2-19
			l8.8,5c-2,5.4-8.5,21.9-18.9,36c-6.5,8.9-15.4,20.4-21.7,28.5c-0.7,0.9-1.6,1.3-2.3,0.9s-0.8-1.3-0.4-2.4
			c3.7-9.6,9-23.1,13.3-33.2c1-2.4,2.1-4.8,3.4-7.3c0.4-0.8,0.1-1.7-0.7-2.1c-0.8-0.4-1.7-0.1-2.1,0.7c-1.3,2.5-2.5,5.1-3.5,7.5
			c-4.3,10.2-9.6,23.8-13.3,33.3c-1.1,3,0.1,5.3,1.8,6.3c0.6,0.3,1.3,0.5,2.1,0.5c1.4,0,2.9-0.6,4.2-2.3
			c6.3-8.1,15.2-19.6,21.7-28.6C383.4,355.8,390,339.4,392.2,333.5z M393.6,300.9c0.1-0.1,0.3-0.2,0.4-0.3c0,0,0,0,0,0
			c3.9-2.4,8.1-4.3,10.3-5.3c0.3,2.3,0.8,6.5,0.8,10.9c0,0,0,0.1,0,0.1c0,0.1,0,0.3,0,0.4c0,1.9-0.1,3.7-0.4,5.3
			c-0.7,0.1-1.4,0.2-2,0.3c-0.4,0-1,0-1.2-0.2c-0.2-0.2-0.4-0.8-0.6-1.4c-0.3-1-0.7-2.1-1.5-3.5c-0.5-0.8-1.2-1.8-2.4-2.1
			c-0.2,0-0.4-0.1-0.6-0.1c-0.9,0-1.6,0.5-2.2,0.8c-0.7,0.5-1.1,0.6-1.6,0.5c-0.6-0.2-0.7-0.5-0.9-1.9c-0.1-0.6-0.2-1.3-0.5-2
			C392.1,301.8,392.8,301.4,393.6,300.9z M386.1,307.4c0.6-1,1.6-2,2.7-3c0,0.1,0,0.3,0.1,0.4c0.2,1.4,0.5,3.6,3.1,4.4
			c1.9,0.6,3.3-0.3,4.2-0.8c0.1-0.1,0.3-0.2,0.4-0.2c0.1,0.1,0.2,0.3,0.4,0.6c0.6,1,0.9,2,1.2,2.8c0.5,1.7,1.2,3.8,4.5,3.8
			c0.1,0,0.2,0,0.4,0c0.4,0,0.8-0.1,1.2-0.1c-0.2,0.7-0.4,1.3-0.7,1.9c-1.7,3.5-6.3,5.8-8.5,6.7l-10.3-5.8
			C384.3,315.8,384,310.7,386.1,307.4z M379.9,323.1c-0.1,0-0.1-0.1,0-0.2l1.6-2.9c0,0,0.1-0.1,0.1-0.1c0,0,0,0,0.1,0l13.3,7.5
			c0,0,0,0,0.1,0.1c0,0,0,0.1,0,0.1l-1.6,2.9c0,0,0,0-0.1,0.1c0,0-0.1,0-0.1,0L379.9,323.1z M351.1,328.9c0,4,3.2,7.2,7.2,7.2
			s7.2-3.2,7.2-7.2c0-4-3.2-7.2-7.2-7.2S351.1,324.9,351.1,328.9z M362.4,328.9c0,2.3-1.8,4.1-4.1,4.1c-2.3,0-4.1-1.8-4.1-4.1
			s1.8-4.1,4.1-4.1C360.6,324.8,362.4,326.6,362.4,328.9z M350.5,341.3c0-4-3.2-7.2-7.2-7.2s-7.2,3.2-7.2,7.2c0,4,3.2,7.2,7.2,7.2
			C347.3,348.5,350.5,345.3,350.5,341.3z M343.3,345.4c-2.3,0-4.1-1.8-4.1-4.1c0-2.3,1.8-4.1,4.1-4.1c2.3,0,4.1,1.8,4.1,4.1
			C347.4,343.5,345.5,345.4,343.3,345.4z M333.2,361.6c0,4,3.2,7.2,7.2,7.2c4,0,7.2-3.2,7.2-7.2s-3.2-7.2-7.2-7.2
			C336.4,354.4,333.2,357.6,333.2,361.6z M344.5,361.6c0,2.3-1.8,4.1-4.1,4.1c-2.3,0-4.1-1.8-4.1-4.1s1.8-4.1,4.1-4.1
			S344.5,359.3,344.5,361.6z"/>
	</g>
</g>
<linearGradient id="SVGID_8_" gradientUnits="userSpaceOnUse" x1="565.907" y1="289.2115" x2="628.1218" y2="289.2115" gradientTransform="matrix(1 0 0 -1 0 408)">
	<stop  offset="0" style="stop-color:#F89A1C"/>
	<stop  offset="1" style="stop-color:#F15D2B"/>
</linearGradient>
<polygon class="st8" points="579.3,145 570.7,136.9 576.9,130.1 576.9,124.9 566.9,124.9 565.9,113.2 575.2,112.2 578.1,107.8 
	572.6,102.7 573.6,98.3 580.2,93 586.2,98.5 590.7,97.1 591.5,88.2 603.3,88.2 603.3,96.3 607.2,99.4 614.9,92.7 622.3,101 
	616.3,109 616.4,113.3 626.1,112.8 628.1,118.9 628.1,124.9 621.2,124.9 616.3,129.5 623,134.9 614.9,143.8 607.9,138.1 
	603.9,140.1 602.5,149.4 590.7,149.4 590.7,138.8 586.8,136.9 "/>
<g id="Forma_1_2_">
	<g>
		<path class="st0" d="M653.9,128.8c-0.7-0.9-1.4-1.7-2.1-2.5c-4.3-4.5-9.6-7.5-15.4-8.5c-1.1-0.2-2.2,0.5-2.4,1.7
			c-0.2,1.1,0.5,2.2,1.7,2.4c4.9,0.9,9.4,3.4,13.1,7.3c0.6,0.7,1.3,1.4,1.9,2.2c0.4,0.5,1,0.8,1.6,0.8c0.4,0,0.9-0.1,1.2-0.4
			C654.4,130.9,654.6,129.7,653.9,128.8z M657.1,133.9c-0.5-1-1.7-1.4-2.7-0.9c-1,0.5-1.4,1.7-0.9,2.7c0.3,0.7,1.1,1.2,1.8,1.2
			c0.3,0,0.6-0.1,0.8-0.2c1-0.5,1.5-1.7,1-2.7C657.2,134,657.2,134,657.1,133.9z M666.1,148.8c-0.8-1.8-2.2-4.7-2.2-5.6
			c2.4-5.9,1.5-12.4-2.5-18.3c-6.1-9.1-18.6-15.8-29.7-15.8c-3.7,0-7.4,0.6-10.9,1.6h-1c-0.3-0.7-0.5-1.4-0.9-2.1l5.8-5.8
			c0.4-0.4,0.6-0.9,0.6-1.4c0-0.5-0.2-1.1-0.6-1.4l-8.7-8.7c-0.8-0.8-2.1-0.8-2.9,0l-5.8,5.8c-0.7-0.3-1.4-0.6-2.1-0.9V88
			c0-1.1-0.9-2-2-2H591c-1.1,0-2,0.9-2,2v8.2c-0.7,0.3-1.4,0.5-2.1,0.9l-5.8-5.8c-0.4-0.4-0.9-0.6-1.4-0.6s-1.1,0.2-1.4,0.6
			l-8.7,8.7c-0.8,0.8-0.8,2.1,0,2.9l5.8,5.8c-0.3,0.7-0.6,1.4-0.9,2.1h-8.2c-1.1,0-2,0.9-2,2v12.3c0,1.1,0.9,2,2,2h8.2
			c0.3,0.7,0.5,1.4,0.9,2.1l-5.8,5.8c-0.8,0.8-0.8,2.1,0,2.9l8.7,8.7c0.8,0.8,2.1,0.8,2.9,0l5.8-5.8c0.7,0.3,1.4,0.6,2.1,0.9v8.2
			c0,1.1,0.9,2,2,2h4.7c1.4,8.3,5.7,15.8,12,21.3c0.1,0.2,0.3,1.1-0.6,4c-0.6,2.2-1.6,4.6-2.5,6.8c-0.6,1.4-1.1,2.7-1.4,3.6
			c-0.2,0.6-0.1,1.3,0.3,1.8c0.4,0.5,1,0.8,1.6,0.8h29.1c1,0,2.3-0.4,3.1-2.5c0.4-0.9,0.6-2,0.8-3.1c0.2-1.1,0.8-3.7,1.4-4
			c0,0,0,0,0.1,0c0.1,0,0.2,0,0.3,0c3,0,5.5,0.1,7.7,0.3c6.4,0.4,10.3,0.6,13.7-4.3c1.7-2.5,1.5-6.1,1.3-10c-0.1-2-0.2-4,0-5.7
			c0.4-0.4,1.2-1,1.8-1.3c1.9-1.3,3.7-2.6,3.7-4.5C668.4,153.7,667.6,151.8,666.1,148.8z M593,147.8v-7.7c0-0.9-0.6-1.7-1.5-2
			c-1.4-0.4-2.8-1-4.1-1.7c-0.8-0.4-1.8-0.3-2.4,0.3l-5.4,5.4l-5.8-5.8l5.4-5.4c0.6-0.6,0.8-1.6,0.3-2.4c-0.7-1.3-1.3-2.7-1.7-4.1
			c-0.3-0.9-1.1-1.5-2-1.5h-7.7v-8.2h7.7c0.9,0,1.7-0.6,2-1.5c0.4-1.4,1-2.8,1.7-4.1c0.4-0.8,0.3-1.8-0.3-2.4l-5.4-5.4l5.8-5.8
			l5.4,5.4c0.6,0.6,1.6,0.8,2.4,0.3c1.3-0.7,2.7-1.3,4.1-1.7c0.9-0.3,1.5-1.1,1.5-2V90h8.2v7.7c0,0.9,0.6,1.7,1.5,2
			c1.4,0.4,2.8,1,4.1,1.7c0.8,0.4,1.8,0.3,2.4-0.3l5.4-5.4l5.8,5.8l-5.4,5.4c-0.6,0.6-0.8,1.6-0.3,2.4c0.7,1.3,1.3,2.7,1.7,4.1
			c0.3,0.9,1.1,1.5,2,1.5h7.7v8.2h-7.7c-0.9,0-1.7,0.6-2,1.5c-0.4,1.4-1,2.8-1.7,4.1c-0.4,0.8-0.3,1.8,0.3,2.4l5.4,5.4l-5.8,5.8
			l-5.4-5.4c-0.6-0.6-1.6-0.8-2.4-0.3c-1.3,0.7-2.7,1.3-4.1,1.7c-0.9,0.3-1.5,1.1-1.5,2v7.7L593,147.8L593,147.8z M662.4,156.2
			c-1.8,1.2-3.3,2.2-3.5,3.8c-0.3,2.2-0.2,4.5-0.1,6.8c0.2,2.9,0.3,6.1-0.6,7.5c-2,2.9-3.8,2.9-10.2,2.6c-2.1-0.1-4.7-0.3-7.8-0.3
			c-1.2-0.1-3.2,0.1-4.5,2.7c-0.7,1.3-1,3-1.4,4.5c-0.2,0.7-0.4,1.8-0.6,2.4h-25.5c0.1-0.2,0.2-0.5,0.3-0.7c2.9-7.4,4.8-12.8,2-15.3
			c-5.5-4.8-9.3-11.2-10.6-18.3h3.4c1.1,0,2-0.9,2-2v-8.2c0.7-0.3,1.4-0.5,2.1-0.9l5.8,5.8c0.8,0.8,2.1,0.8,2.9,0l8.7-8.7
			c0.4-0.4,0.6-0.9,0.6-1.4c0-0.5-0.2-1.1-0.6-1.4l-5.8-5.8c0.3-0.7,0.6-1.4,0.9-2.1h8.2c1.1,0,2-0.9,2-2v-11.9c0.5,0,1.1,0,1.6,0
			c9.7,0,21,6,26.4,14c2.3,3.4,4.5,8.7,2,14.6c-0.8,1.9,0.4,4.6,2.4,8.8c0.6,1.4,1.6,3.3,1.8,4.2C663.9,155.2,663,155.8,662.4,156.2
			z M597,109L597,109c1.2,0,2.1-0.9,2.1-2s-0.9-2-2-2H597c-1.1,0-2,0.9-2,2S595.9,109,597,109z M587.2,118.9c0-3.8,2.1-7.2,5.5-8.9
			c1-0.5,1.4-1.7,0.9-2.7c-0.5-1-1.7-1.4-2.7-0.9c-4.8,2.4-7.7,7.2-7.7,12.5c0,4.1,1.8,8,5,10.7c0.4,0.3,0.8,0.5,1.3,0.5
			c0.6,0,1.2-0.2,1.6-0.7c0.7-0.9,0.6-2.1-0.2-2.9C588.5,124.6,587.2,121.8,587.2,118.9z M605,118.9c0-4.3-3.5-7.9-7.9-7.9
			c-4.3,0-7.9,3.5-7.9,7.9s3.5,7.9,7.9,7.9C601.4,126.8,605,123.3,605,118.9z M597.1,122.7c-2.1,0-3.8-1.7-3.8-3.8
			c0-2.1,1.7-3.8,3.8-3.8c2.1,0,3.8,1.7,3.8,3.8C600.9,121,599.2,122.7,597.1,122.7z"/>
	</g>
</g>
<linearGradient id="SVGID_9_" gradientUnits="userSpaceOnUse" x1="833.2639" y1="65.4807" x2="897.9702" y2="65.4807" gradientTransform="matrix(1 0 0 -1 0 408)">
	<stop  offset="0" style="stop-color:#F89A1C"/>
	<stop  offset="1" style="stop-color:#F15D2B"/>
</linearGradient>
<circle class="st9" cx="865.6" cy="342.5" r="32.4"/>
<g id="Forma_1_4_">
	<g>
		<path class="st0" d="M902.4,305.6c-9.9-9.9-23-15.3-37-15.3c-14,0-27.1,5.4-37,15.3c-9.9,9.9-15.3,23-15.3,37
			c0,14,5.4,27.1,15.3,37c9.9,9.9,23,15.3,37,15.3c14,0,27.1-5.4,37-15.3c9.9-9.9,15.3-23,15.3-37
			C917.7,328.6,912.3,315.5,902.4,305.6z M865.5,391.8c-27.1,0-49.2-22.1-49.2-49.2s22.1-49.2,49.2-49.2c27.1,0,49.2,22.1,49.2,49.2
			S892.6,391.8,865.5,391.8z M865.5,376.5c18.7,0,33.9-15.2,33.9-33.9s-15.2-33.9-33.9-33.9c-18.7,0-33.9,15.2-33.9,33.9
			S846.8,376.5,865.5,376.5z M865.5,311.7c17,0,30.8,13.8,30.8,30.8s-13.8,30.8-30.8,30.8s-30.8-13.8-30.8-30.8
			C834.6,325.6,848.5,311.7,865.5,311.7z M865.5,368.3c0.4,0,0.8-0.2,1.1-0.4l24.5-24.5c0.4-0.4,0.6-1.1,0.3-1.7
			c-0.2-0.6-0.8-0.9-1.4-0.9h-4.6v-13.7c0-0.8-0.7-1.5-1.5-1.5h-36.7c-0.8,0-1.5,0.7-1.5,1.5v13.7H841c-0.6,0-1.2,0.4-1.4,0.9
			c-0.2,0.6-0.1,1.2,0.3,1.7l24.5,24.5C864.7,368.1,865.1,368.3,865.5,368.3z M847.1,343.8c0.8,0,1.5-0.7,1.5-1.5v-13.7h33.7v13.7
			c0,0.8,0.7,1.5,1.5,1.5h2.4l-20.8,20.8l-20.8-20.8H847.1z M865.5,322.5c0.8,0,1.5-0.7,1.5-1.5s-0.7-1.5-1.5-1.5s-1.5,0.7-1.5,1.5
			S864.6,322.5,865.5,322.5z M859.3,322.5c0.8,0,1.5-0.7,1.5-1.5s-0.7-1.5-1.5-1.5c-0.8,0-1.5,0.7-1.5,1.5S858.5,322.5,859.3,322.5z
			 M871.6,322.5c0.8,0,1.5-0.7,1.5-1.5s-0.7-1.5-1.5-1.5c-0.8,0-1.5,0.7-1.5,1.5S870.7,322.5,871.6,322.5z M898.1,309.9
			c-8.7-8.7-20.3-13.5-32.6-13.5c-12.3,0-23.9,4.8-32.6,13.5s-13.5,20.3-13.5,32.6c0,11.2,4,21.9,11.4,30.3c0.6,0.6,1.5,0.7,2.2,0.2
			s0.7-1.5,0.1-2.2c-6.8-7.8-10.6-17.9-10.6-28.3c0-23.8,19.3-43.1,43.1-43.1s43.1,19.3,43.1,43.1c0,23.8-19.3,43.1-43.1,43.1
			c-10.4,0-20.5-3.8-28.3-10.6c-0.6-0.6-1.6-0.5-2.2,0.1c-0.6,0.6-0.5,1.6,0.1,2.2c8.4,7.3,19.2,11.4,30.3,11.4
			c12.3,0,23.9-4.8,32.6-13.5s13.5-20.3,13.5-32.6C911.6,330.2,906.8,318.7,898.1,309.9z"/>
	</g>
</g>
<linearGradient id="SVGID_10_" gradientUnits="userSpaceOnUse" x1="1097.8207" y1="283.6025" x2="1155.2638" y2="283.6025" gradientTransform="matrix(1 0 0 -1 0 408)">
	<stop  offset="0" style="stop-color:#F89A1C"/>
	<stop  offset="1" style="stop-color:#F15D2B"/>
</linearGradient>
<path class="st10" d="M1097.8,159.7V89.1h41.5v16.6c0,0,15.2,0.5,15.7,0c0.5-0.5,0,54.1,0,54.1L1097.8,159.7L1097.8,159.7z"/>
<g id="Shape_1">
	<g>
		<path class="st0" d="M1157.2,110.6v-7.3l-15.4-15.4H1096v22.5h-24.2c-4.4,0-8,3.6-8,8.1V170c0,4.4,3.6,8.1,8,8.1h19.3v6.4h-6.4
			v3.2h58v-3.2h-6.4v-6.4h19.3c4.4,0,8.1-3.6,8.1-8.1v-51.5C1163.6,114.6,1160.9,111.4,1157.2,110.6z M1141.1,91.8l12.2,12.2h-12.2
			V91.8z M1099.2,91.1h38.6v16.1h16.1v51.5h-54.7L1099.2,91.1L1099.2,91.1z M1133.1,184.5h-38.6v-6.4h38.6V184.5z M1160.4,170
			c0,2.7-2.2,4.8-4.8,4.8h-83.7c-2.7,0-4.8-2.2-4.8-4.8v-1.6h93.4V170z M1160.4,165.2H1067v-46.7c0-2.7,2.2-4.8,4.8-4.8h24.2V162
			h61.2v-48c1.9,0.7,3.2,2.4,3.2,4.5L1160.4,165.2L1160.4,165.2z M1092.8,128.2c0-6.2-5.1-11.3-11.3-11.3c-6.2,0-11.3,5.1-11.3,11.3
			c0,6.2,5.1,11.3,11.3,11.3C1087.7,139.4,1092.8,134.4,1092.8,128.2z M1083.1,125c0,0.9-0.7,1.6-1.6,1.6c-0.9,0-1.6-0.7-1.6-1.6
			c0-0.9,0.7-1.6,1.6-1.6C1082.4,123.3,1083.1,124.1,1083.1,125z M1081.5,136.2c-1.1,0-2.2-0.2-3.2-0.6c0.3-1.5,1.6-2.6,3.2-2.6
			s2.9,1.1,3.2,2.6C1083.7,136,1082.7,136.2,1081.5,136.2z M1081.5,129.8c-2.6,0-4.9,1.6-5.9,3.8c-1.3-1.4-2.2-3.3-2.2-5.5
			c0-4.1,3.1-7.5,7.1-8c-2.2,0.5-3.9,2.4-3.9,4.7C1076.7,127.6,1078.9,129.8,1081.5,129.8c2.7,0,4.8-2.2,4.8-4.8
			c0-2.3-1.7-4.3-3.9-4.7c4,0.5,7.1,3.8,7.1,8c0,2.1-0.8,4-2.2,5.5C1086.4,131.4,1084.2,129.8,1081.5,129.8z M1070.3,150.7
			c0,6.2,5.1,11.3,11.3,11.3c6.2,0,11.3-5.1,11.3-11.3s-5.1-11.3-11.3-11.3C1075.3,139.4,1070.3,144.5,1070.3,150.7z M1081.5,158.8
			c-1.1,0-2.2-0.2-3.2-0.6c0.3-1.5,1.6-2.6,3.2-2.6s2.9,1.1,3.2,2.6C1083.7,158.5,1082.7,158.8,1081.5,158.8z M1083.1,147.5
			c0,0.9-0.7,1.6-1.6,1.6c-0.9,0-1.6-0.7-1.6-1.6c0-0.9,0.7-1.6,1.6-1.6C1082.4,145.9,1083.1,146.6,1083.1,147.5z M1080.6,142.8
			c-2.2,0.5-3.9,2.4-3.9,4.7c0,2.7,2.2,4.8,4.8,4.8c2.7,0,4.8-2.2,4.8-4.8c0-2.3-1.7-4.3-3.9-4.7c4,0.5,7.1,3.8,7.1,8
			c0,2.1-0.8,4-2.2,5.5c-1-2.3-3.3-3.8-5.9-3.8s-4.9,1.6-5.9,3.8c-1.3-1.4-2.2-3.3-2.2-5.5C1073.5,146.6,1076.6,143.2,1080.6,142.8z
			 M1121.8,100.7v-3.1h-16.1v16.1h16.1v-9.1l5.8-4.1l-1.9-2.6L1121.8,100.7z M1118.6,103l-3,2.2l-2.3-2.3l-2.3,2.3l4.2,4.2l3.4-2.4
			v3.5h-9.7v-9.7h9.7L1118.6,103L1118.6,103z M1121.8,120v-3.1h-16.1V133h16.1v-9.1l5.8-4.1l-1.9-2.6L1121.8,120z M1118.6,122.3
			l-3,2.2l-2.3-2.3l-2.3,2.3l4.2,4.2l3.4-2.4v3.5h-9.7v-9.7h9.7L1118.6,122.3L1118.6,122.3z M1121.8,139.3v-3.1h-16.1v16.1h16.1
			v-9.1l5.8-4.1l-1.9-2.6L1121.8,139.3z M1118.6,141.6l-3,2.2l-2.3-2.3l-2.3,2.3l4.2,4.2l3.4-2.4v3.5h-9.7v-9.7h9.7L1118.6,141.6
			L1118.6,141.6z M1128.2,113.7h19.3v-3.2h-19.3V113.7z M1128.2,133h19.3v-3.2h-19.3V133z M1128.2,152.3h19.3v-3.2h-19.3V152.3z
			 M1128.2,145.9h19.3v-3.2h-19.3V145.9z M1128.2,126.6h19.3v-3.2h-19.3V126.6z M1134.7,104h-6.4v3.2h6.4V104z"/>
	</g>
</g>
<text transform="matrix(-4.371138e-08 -1 1 -4.371138e-08 116.6972 340.9479)" class="st11 st12">01</text>
<text transform="matrix(-4.371138e-08 -1 1 -4.371138e-08 161.7079 430.3766)" class="st11 st13">Analysis</text>
<text transform="matrix(-4.371138e-08 -1 1 -4.371138e-08 609.6815 348.6334)" class="st11 st12">03</text>
<text transform="matrix(-4.371138e-08 -1 1 -4.371138e-08 654.6923 425.651)" class="st11 st13">Develop</text>
<text transform="matrix(-4.371138e-08 -1 1 -4.371138e-08 1107.243 346.9215)" class="st11 st12">05</text>
<text transform="matrix(-4.371138e-08 -1 1 -4.371138e-08 1152.2538 437.6148)" class="st11 st13">Evaluate</text>
<text transform="matrix(-4.371138e-08 -1 1 -4.371138e-08 364.079 187.7428)" class="st11 st12">02</text>
<text transform="matrix(-4.371138e-08 -1 1 -4.371138e-08 409.0897 187.7428)" class="st11 st13">Design</text>
<text transform="matrix(-4.371138e-08 -1 1 -4.371138e-08 857.8905 190.2448)" class="st11 st12">02</text>
<text transform="matrix(-4.371138e-08 -1 1 -4.371138e-08 902.9003 190.2448)" class="st11 st13">Implement</text>
</svg>
