<?xml version="1.0" encoding="UTF-8" standalone="no"?>
<svg width="1400px" height="620px" viewBox="0 0 1400 620" version="1.1" xmlns="http://www.w3.org/2000/svg" xmlns:xlink="http://www.w3.org/1999/xlink" xmlns:sketch="http://www.bohemiancoding.com/sketch/ns">
    <!-- Generator: Sketch 3.0.3 (7891) - http://www.bohemiancoding.com/sketch -->
    <title>banner</title>
    <desc>Created with Sketch.</desc>
    <defs></defs>
    <g id="Home" stroke="none" stroke-width="1" fill="none" fill-rule="evenodd" sketch:type="MSPage">
        <g id="Desktop" sketch:type="MSArtboardGroup">
            <g id="Banner" sketch:type="MSLayerGroup" transform="translate(-48.000000, -1.000000)">
                <g id="banner" transform="translate(-756.000000, -321.000000)" sketch:type="MSShapeGroup">
                    <g>
                        <rect id="Banner" fill="#97DEF4" x="187.210526" y="322" width="2210.52632" height="687"></rect>
                        <path d="M2293.39659,805.523438 L2312.30205,367.195313 L1659.81917,786.597656 L2293.39659,805.523438 Z" id="Banner-Path-1" fill-opacity="0.0500000045" fill="#FFFFFF" transform="translate(1985.984153, 586.691406) rotate(-77.000000) translate(-1985.984153, -586.691406) "></path>
                        <path d="M1994.95075,472.474223 L1591.88635,131.627639 L1555.28273,998.23175 L1994.95075,472.474223 Z" id="Banner-Path-2" fill-opacity="0.100000001" fill="#FFFFFF" transform="translate(1582.154892, 571.840043) scale(-1, 1) rotate(-23.000000) translate(-1582.154892, -571.840043) "></path>
                        <path d="M1993.62249,565.164297 L1656.57243,93.184675 L1318.51831,1060.86477 L1993.62249,565.164297 Z" id="Banner-Path-3" fill-opacity="0.05" fill="#FFFFFF"></path>
                        <path d="M2363.19397,768.546572 L2386.51043,546.887034 L1581.79108,758.975934 L2363.19397,768.546572 Z" id="Banner-Path-4" fill-opacity="0.1" fill="#FFFFFF" transform="translate(1984.494549, 657.637906) scale(-1, -1) rotate(-54.000000) translate(-1984.494549, -657.637906) "></path>
                        <path d="M630.122047,1238.34569 L1225.26106,941.227054 L189.514576,384.282422 L630.122047,1238.34569 Z" id="Banner-Path-5" fill-opacity="0.100000001" fill="#FFFFFF" transform="translate(694.846487, 669.654340) scale(-1, -1) translate(-694.846487, -669.654340) "></path>
                    </g>
                </g>
            </g>
        </g>
    </g>
</svg>