<?xml version="1.0" encoding="utf-8"?>
<!-- Generator: Adobe Illustrator 21.1.0, SVG Export Plug-In . SVG Version: 6.00 Build 0)  -->
<svg version="1.1" id="Layer_1" xmlns="http://www.w3.org/2000/svg" xmlns:xlink="http://www.w3.org/1999/xlink" x="0px" y="0px"
	 viewBox="0 0 40 40" style="enable-background:new 0 0 40 40;" xml:space="preserve">
<style type="text/css">
	.st0{fill:#3B5998;}
	.st1{fill:#FFFFFF;}
</style>
<g>
	<path class="st0" d="M20,0c11,0,20,9,20,20c0,11-9,20-20,20C9,40,0,31,0,20C0,9,9,0,20,0L20,0z M20,0"/>
	<path class="st1" d="M22.4,13.8H25V10h-3v0c-3.7,0.1-4.4,2.2-4.5,4.4h0v1.9H15V20h2.5v10h3.8V20h3.1l0.6-3.7h-3.7v-1.1
		C21.3,14.4,21.7,13.8,22.4,13.8L22.4,13.8z M22.4,13.8"/>
</g>
</svg>
