<?xml version="1.0" encoding="utf-8"?>
<!-- Generator: Adobe Illustrator 21.1.0, SVG Export Plug-In . SVG Version: 6.00 Build 0)  -->
<svg version="1.1" id="Layer_1" xmlns="http://www.w3.org/2000/svg" xmlns:xlink="http://www.w3.org/1999/xlink" x="0px" y="0px"
	 viewBox="0 0 40 40" style="enable-background:new 0 0 40 40;" xml:space="preserve">
<style type="text/css">
	.st0{fill:#DD4B39;}
	.st1{fill:#FFFFFF;}
</style>
<g>
	<path class="st0" d="M20,0c11,0,20,9,20,20c0,11-9,20-20,20C9,40,0,31,0,20C0,9,9,0,20,0L20,0z M20,0"/>
	<path class="st1" d="M30.1,16.6v2.3h2.2v2.2h-2.2v2.2h-2.3v-2.2h-2.2v-2.2h2.2v-2.3H30.1z M30.1,16.6"/>
	<path class="st1" d="M9.9,25.6c-3-3-3-8.2,0.1-11.3c2.2-2.2,5.5-2.8,8.4-1.6l1.1,0.6l1.3,0.9l-2,2L18,15.8
		c-1.7-1.1-4.2-0.9-5.9,0.8c-1.9,1.9-2,5.3,0,7.3c1.9,2,5.3,2,7,0c0.5-0.5,1-1.3,1.1-2v-0.3h-4.5V19h7.1l0.1,0.6v1.7
		c-0.1,1.6-0.8,3.3-1.9,4.4C18.1,28.6,12.9,28.6,9.9,25.6L9.9,25.6z M9.9,25.6"/>
</g>
</svg>
