<?xml version="1.0" encoding="utf-8"?>
<!-- Generator: Adobe Illustrator 21.1.0, SVG Export Plug-In . SVG Version: 6.00 Build 0)  -->
<svg version="1.1" id="Layer_1" xmlns="http://www.w3.org/2000/svg" xmlns:xlink="http://www.w3.org/1999/xlink" x="0px" y="0px"
	 viewBox="0 0 103.9 104.2" style="enable-background:new 0 0 103.9 104.2;" xml:space="preserve">
<style type="text/css">
	.st0{fill:url(#SVGID_1_);}
	.st1{fill:#282828;}
</style>
<linearGradient id="SVGID_1_" gradientUnits="userSpaceOnUse" x1="1.6001" y1="704.8" x2="63.8" y2="704.8" gradientTransform="matrix(1 0 0 1 0 -672)">
	<stop  offset="0" style="stop-color:#F89A1C"/>
	<stop  offset="1" style="stop-color:#F15D2B"/>
</linearGradient>
<polygon class="st0" points="15,59 6.4,50.9 12.6,44.1 12.6,38.9 2.6,38.9 1.6,27.2 10.9,26.2 13.8,21.8 8.3,16.7 9.3,12.3 15.9,7 
	21.9,12.5 26.4,11.1 27.2,2.2 39,2.2 39,10.3 42.9,13.4 50.6,6.7 58,15 52,23 52.1,27.3 61.8,26.8 63.8,32.9 63.8,38.9 56.9,38.9 
	52,43.5 58.7,48.9 50.6,57.8 43.6,52.1 39.6,54.1 38.2,63.4 26.4,63.4 26.4,52.8 22.5,50.9 "/>
<g id="Forma_1_2_">
	<g>
		<path class="st1" d="M89.6,42.8c-0.7-0.9-1.4-1.7-2.1-2.5c-4.3-4.5-9.6-7.5-15.4-8.5c-1.1-0.2-2.2,0.5-2.4,1.7
			c-0.2,1.1,0.5,2.2,1.7,2.4c4.9,0.9,9.4,3.4,13.1,7.3c0.6,0.7,1.3,1.4,1.9,2.2c0.4,0.5,1,0.8,1.6,0.8c0.4,0,0.9-0.1,1.2-0.4
			C90.1,44.9,90.3,43.7,89.6,42.8z M92.8,47.9c-0.5-1-1.7-1.4-2.7-0.9s-1.4,1.7-0.9,2.7c0.3,0.7,1.1,1.2,1.8,1.2
			c0.3,0,0.6-0.1,0.8-0.2c1-0.5,1.5-1.7,1-2.7C92.9,48,92.9,48,92.8,47.9z M101.8,62.8c-0.8-1.8-2.2-4.7-2.2-5.6
			c2.4-5.9,1.5-12.4-2.5-18.3C91,29.8,78.5,23.1,67.4,23.1c-3.7,0-7.4,0.6-10.9,1.6h-1c-0.3-0.7-0.5-1.4-0.9-2.1l5.8-5.8
			c0.4-0.4,0.6-0.9,0.6-1.4s-0.2-1.1-0.6-1.4l-8.7-8.7c-0.8-0.8-2.1-0.8-2.9,0L43,11.1c-0.7-0.3-1.4-0.6-2.1-0.9V2c0-1.1-0.9-2-2-2
			H26.7c-1.1,0-2,0.9-2,2v8.2c-0.7,0.3-1.4,0.5-2.1,0.9l-5.8-5.8c-0.4-0.4-0.9-0.6-1.4-0.6S14.3,4.9,14,5.3L5.3,14
			c-0.8,0.8-0.8,2.1,0,2.9l5.8,5.8c-0.3,0.7-0.6,1.4-0.9,2.1H2c-1.1,0-2,0.9-2,2v12.3c0,1.1,0.9,2,2,2h8.2c0.3,0.7,0.5,1.4,0.9,2.1
			L5.3,49c-0.8,0.8-0.8,2.1,0,2.9l8.7,8.7c0.8,0.8,2.1,0.8,2.9,0l5.8-5.8c0.7,0.3,1.4,0.6,2.1,0.9v8.2c0,1.1,0.9,2,2,2h4.7
			c1.4,8.3,5.7,15.8,12,21.3c0.1,0.2,0.3,1.1-0.6,4c-0.6,2.2-1.6,4.6-2.5,6.8c-0.6,1.4-1.1,2.7-1.4,3.6c-0.2,0.6-0.1,1.3,0.3,1.8
			c0.4,0.5,1,0.8,1.6,0.8H70c1,0,2.3-0.4,3.1-2.5c0.4-0.9,0.6-2,0.8-3.1s0.8-3.7,1.4-4c0,0,0,0,0.1,0s0.2,0,0.3,0
			c3,0,5.5,0.1,7.7,0.3c6.4,0.4,10.3,0.6,13.7-4.3c1.7-2.5,1.5-6.1,1.3-10c-0.1-2-0.2-4,0-5.7c0.4-0.4,1.2-1,1.8-1.3
			c1.9-1.3,3.7-2.6,3.7-4.5C104.1,67.7,103.3,65.8,101.8,62.8z M28.7,61.8v-7.7c0-0.9-0.6-1.7-1.5-2c-1.4-0.4-2.8-1-4.1-1.7
			c-0.8-0.4-1.8-0.3-2.4,0.3l-5.4,5.4l-5.8-5.8l5.4-5.4c0.6-0.6,0.8-1.6,0.3-2.4c-0.7-1.3-1.3-2.7-1.7-4.1c-0.3-0.9-1.1-1.5-2-1.5
			H3.8v-8.2h7.7c0.9,0,1.7-0.6,2-1.5c0.4-1.4,1-2.8,1.7-4.1c0.4-0.8,0.3-1.8-0.3-2.4l-5.4-5.4l5.8-5.8l5.4,5.4
			c0.6,0.6,1.6,0.8,2.4,0.3c1.3-0.7,2.7-1.3,4.1-1.7c0.9-0.3,1.5-1.1,1.5-2V4h8.2v7.7c0,0.9,0.6,1.7,1.5,2c1.4,0.4,2.8,1,4.1,1.7
			c0.8,0.4,1.8,0.3,2.4-0.3l5.4-5.4l5.8,5.8l-5.4,5.4c-0.6,0.6-0.8,1.6-0.3,2.4c0.7,1.3,1.3,2.7,1.7,4.1c0.3,0.9,1.1,1.5,2,1.5h7.7
			v8.2h-7.7c-0.9,0-1.7,0.6-2,1.5c-0.4,1.4-1,2.8-1.7,4.1c-0.4,0.8-0.3,1.8,0.3,2.4l5.4,5.4l-5.8,5.8l-5.4-5.4
			c-0.6-0.6-1.6-0.8-2.4-0.3c-1.3,0.7-2.7,1.3-4.1,1.7c-0.9,0.3-1.5,1.1-1.5,2V62L28.7,61.8L28.7,61.8z M98.1,70.2
			c-1.8,1.2-3.3,2.2-3.5,3.8c-0.3,2.2-0.2,4.5-0.1,6.8c0.2,2.9,0.3,6.1-0.6,7.5c-2,2.9-3.8,2.9-10.2,2.6c-2.1-0.1-4.7-0.3-7.8-0.3
			c-1.2-0.1-3.2,0.1-4.5,2.7c-0.7,1.3-1,3-1.4,4.5c-0.2,0.7-0.4,1.8-0.6,2.4H43.9c0.1-0.2,0.2-0.5,0.3-0.7c2.9-7.4,4.8-12.8,2-15.3
			c-5.5-4.8-9.3-11.2-10.6-18.3H39c1.1,0,2-0.9,2-2v-8.2c0.7-0.3,1.4-0.5,2.1-0.9l5.8,5.8c0.8,0.8,2.1,0.8,2.9,0l8.7-8.7
			c0.4-0.4,0.6-0.9,0.6-1.4s-0.2-1.1-0.6-1.4l-5.8-5.8c0.3-0.7,0.6-1.4,0.9-2.1h8.2c1.1,0,2-0.9,2-2V27.3c0.5,0,1.1,0,1.6,0
			c9.7,0,21,6,26.4,14c2.3,3.4,4.5,8.7,2,14.6c-0.8,1.9,0.4,4.6,2.4,8.8c0.6,1.4,1.6,3.3,1.8,4.2C99.6,69.2,98.7,69.8,98.1,70.2z
			 M32.7,23L32.7,23c1.2,0,2.1-0.9,2.1-2s-0.9-2-2-2h-0.1c-1.1,0-2,0.9-2,2S31.6,23,32.7,23z M22.9,32.9c0-3.8,2.1-7.2,5.5-8.9
			c1-0.5,1.4-1.7,0.9-2.7s-1.7-1.4-2.7-0.9c-4.8,2.4-7.7,7.2-7.7,12.5c0,4.1,1.8,8,5,10.7c0.4,0.3,0.8,0.5,1.3,0.5
			c0.6,0,1.2-0.2,1.6-0.7c0.7-0.9,0.6-2.1-0.2-2.9C24.2,38.6,22.9,35.8,22.9,32.9z M40.7,32.9c0-4.3-3.5-7.9-7.9-7.9
			c-4.3,0-7.9,3.5-7.9,7.9s3.5,7.9,7.9,7.9C37.1,40.8,40.7,37.3,40.7,32.9z M32.8,36.7c-2.1,0-3.8-1.7-3.8-3.8
			c0-2.1,1.7-3.8,3.8-3.8s3.8,1.7,3.8,3.8C36.6,35,34.9,36.7,32.8,36.7z"/>
	</g>
</g>
</svg>
