<?xml version="1.0" encoding="utf-8"?>
<!-- Generator: Adobe Illustrator 21.1.0, SVG Export Plug-In . SVG Version: 6.00 Build 0)  -->
<svg version="1.1" id="Layer_1" xmlns="http://www.w3.org/2000/svg" xmlns:xlink="http://www.w3.org/1999/xlink" x="0px" y="0px"
	 viewBox="0 0 392.6 325.5" style="enable-background:new 0 0 392.6 325.5;" xml:space="preserve">
<style type="text/css">
	.st0{fill:#A7A9AC;}
</style>
<g>
	<path class="st0" d="M114.5,165.7v42.9c0,3.5,4.3,5.1,6.6,2.5l39.2-45.4h134.3c11.8,0,21.3-9.5,21.3-21.3v-116
		c0-11.8-9.5-21.3-21.3-21.3H98.2C86.5,7.1,77,16.6,77,28.4v116c0,11.8,9.5,21.3,21.3,21.3H114.5z M114.5,165.7"/>
	<path d="M68.3,278.2h86.2c2.3,6.9,8.8,11.8,16.4,11.8h50.8c7.6,0,14.1-5,16.4-11.8h86.2c4,0,7.3-3.3,7.3-7.3c0-4-3.3-7.3-7.3-7.3
		h-92.6c-4,0-7.3,3.3-7.3,7.3v1.8c0,1.5-1.3,2.8-2.8,2.8h-50.8c-1.5,0-2.8-1.3-2.8-2.8V271c0-4-3.3-7.3-7.3-7.3H68.3
		c-4,0-7.3,3.3-7.3,7.3C61.1,275,64.3,278.2,68.3,278.2L68.3,278.2z M68.3,278.2"/>
	<path d="M385.4,263.7h-21.6v-184c0-4-3.3-7.3-7.3-7.3c-4,0-7.3,3.3-7.3,7.3V271c0,4,3.3,7.3,7.3,7.3H378v11.6
		c0,11.7-9.5,21.1-21.1,21.1H35.7c-11.7,0-21.1-9.5-21.1-21.1v-11.6h21.5c4,0,7.3-3.3,7.3-7.3V79.7c0-4-3.3-7.3-7.3-7.3
		c-4,0-7.3,3.3-7.3,7.3v184H7.3c-4,0-7.3,3.3-7.3,7.3v18.9c0,19.7,16,35.7,35.7,35.7H357c19.7,0,35.7-16,35.7-35.7V271
		C392.6,267,389.4,263.7,385.4,263.7L385.4,263.7z M385.4,263.7"/>
	<path d="M227.9,55.7l-46.4,46.2L165,85.3c-2.8-2.9-7.4-2.9-10.2,0c-2.9,2.8-2.9,7.4,0,10.2l21.6,21.7c1.4,1.4,3.3,2.2,5.1,2.2
		c1.8,0,3.7-0.7,5.1-2.1L238.2,66c2.9-2.8,2.9-7.4,0-10.2C235.3,52.9,230.7,52.9,227.9,55.7L227.9,55.7z M227.9,55.7"/>
	<path d="M294.6,0H98.2C82.6,0,69.8,12.8,69.8,28.5v116c0,15.7,12.8,28.5,28.5,28.5h9v35.6c0,6.1,5,11,11,11c3.2,0,6.2-1.4,8.3-3.8
		l37-42.9h131c15.7,0,28.5-12.8,28.5-28.5v-116C323.1,12.7,310.3,0,294.6,0L294.6,0z M308.6,144.5c0,7.7-6.2,14-14,14H160.3
		c-2.1,0-4.1,0.9-5.5,2.5l-33.1,38.3v-33.6c0-4-3.3-7.3-7.3-7.3H98.2c-7.7,0-14-6.2-14-14v-116c0-7.7,6.2-14,14-14h196.4
		c7.7,0,14,6.2,14,14L308.6,144.5L308.6,144.5z M308.6,144.5"/>
</g>
</svg>
