<?xml version="1.0" encoding="utf-8"?>
<!-- Generator: Adobe Illustrator 21.1.0, SVG Export Plug-In . SVG Version: 6.00 Build 0)  -->
<svg version="1.1" id="Layer_1" xmlns="http://www.w3.org/2000/svg" xmlns:xlink="http://www.w3.org/1999/xlink" x="0px" y="0px"
	 viewBox="0 0 40 40" style="enable-background:new 0 0 40 40;" xml:space="preserve">
<style type="text/css">
	.st0{fill:#0E76A8;}
	.st1{fill:#FFFFFF;}
</style>
<g>
	<path class="st0" d="M20,0c11,0,20,9,20,20c0,11-9,20-20,20C9,40,0,31,0,20C0,9,9,0,20,0L20,0z M20,0"/>
	<path class="st1" d="M11.3,27.5H15V15h-3.7V27.5z M25.9,14.6c-1.8,0-3.4,0.7-4.6,2.1V15h-3.8v12.5h3.8v-6.8c0-1.4,1.3-2.8,3-2.8
		c1.6,0,2,1.4,2,2.8v6.8H30v-7.1C30,15.5,27.7,14.6,25.9,14.6L25.9,14.6z M13.1,13.8c1,0,1.9-0.8,1.9-1.9c0-1-0.8-1.9-1.9-1.9
		c-1,0-1.9,0.8-1.9,1.9C11.3,12.9,12.1,13.8,13.1,13.8L13.1,13.8z M13.1,13.8"/>
</g>
</svg>
