<?xml version="1.0" encoding="utf-8"?>
<!-- Generator: Adobe Illustrator 21.1.0, SVG Export Plug-In . SVG Version: 6.00 Build 0)  -->
<svg version="1.1" xmlns="http://www.w3.org/2000/svg" xmlns:xlink="http://www.w3.org/1999/xlink" x="0px" y="0px"
	 viewBox="0 0 117.8 120" style="enable-background:new 0 0 117.8 120;" xml:space="preserve">
<style type="text/css">
	.st0{enable-background:new    ;}
	.st1{fill-rule:evenodd;clip-rule:evenodd;fill:#282828;}
	.st2{fill:#FF5B22;}
	.st3{fill-rule:evenodd;clip-rule:evenodd;fill:#FF5B22;}
</style>
<g id="Layer_2">
</g>
<g id="Forma_1_1_" class="st0">
	<g id="Forma_1">
		<g>
			<path class="st1" d="M74.1,98.8c3.1,0,5.7-2.6,5.7-5.7s-2.6-5.7-5.7-5.7c-2.5,0-4.6,1.6-5.4,3.8h-7.9V79.8h7.9
				c0.8,2.2,2.9,3.8,5.4,3.8c3.1,0,5.7-2.6,5.7-5.7s-2.6-5.7-5.7-5.7c-2.5,0-4.6,1.6-5.4,3.8h-7.9V64.6h7.9c0.8,2.2,2.9,3.8,5.4,3.8
				c3.1,0,5.7-2.6,5.7-5.7c0-3.1-2.6-5.7-5.7-5.7c-2.5,0-4.6,1.6-5.4,3.8h-7.9V57H57v-7.9c2.2-0.8,3.8-2.9,3.8-5.4
				c0-3.1-2.6-5.7-5.7-5.7s-5.7,2.6-5.7,5.7c0,2.5,1.6,4.6,3.8,5.4V57H41.8v-7.9c2.2-0.8,3.8-2.9,3.8-5.4c0-3.1-2.6-5.7-5.7-5.7
				c-3.1,0-5.7,2.6-5.7,5.7c0,2.5,1.6,4.6,3.8,5.4V57H26.6v-7.9c2.2-0.8,3.8-2.9,3.8-5.4c0-3.1-2.6-5.7-5.7-5.7
				c-3.1,0-5.7,2.6-5.7,5.7c0,2.5,1.6,4.6,3.8,5.4V57H19v3.8h-7.9C10.3,58.6,8.2,57,5.7,57C2.6,57,0,59.6,0,62.7
				c0,3.1,2.6,5.7,5.7,5.7c2.5,0,4.6-1.6,5.4-3.8H19V76h-7.9c-0.8-2.2-2.9-3.8-5.4-3.8c-3.1,0-5.7,2.6-5.7,5.7s2.6,5.7,5.7,5.7
				c2.5,0,4.6-1.6,5.4-3.8H19v11.4h-7.9c-0.8-2.2-2.9-3.8-5.4-3.8C2.6,87.4,0,90,0,93.1s2.6,5.7,5.7,5.7c2.5,0,4.6-1.6,5.4-3.8H19
				v3.8h3.8v7.9c-2.2,0.8-3.8,2.9-3.8,5.4c0,3.1,2.6,5.7,5.7,5.7c3.1,0,5.7-2.6,5.7-5.7c0-2.5-1.6-4.6-3.8-5.4v-7.9H38v7.9
				c-2.2,0.8-3.8,2.9-3.8,5.4c0,3.1,2.6,5.7,5.7,5.7c3.1,0,5.7-2.6,5.7-5.7c0-2.5-1.6-4.6-3.8-5.4v-7.9h11.4v7.9
				c-2.2,0.8-3.8,2.9-3.8,5.4c0,3.1,2.6,5.7,5.7,5.7s5.7-2.6,5.7-5.7c0-2.5-1.6-4.6-3.8-5.4v-7.9h3.8V95h7.9
				C69.5,97.2,71.6,98.8,74.1,98.8z M74.1,91.2c1,0,1.9,0.9,1.9,1.9S75.2,95,74.1,95s-1.9-0.9-1.9-1.9S73.1,91.2,74.1,91.2z
				 M74.1,76c1,0,1.9,0.9,1.9,1.9s-0.9,1.9-1.9,1.9s-1.9-0.9-1.9-1.9S73.1,76,74.1,76z M74.1,60.8c1,0,1.9,0.9,1.9,1.9
				s-0.9,1.9-1.9,1.9s-1.9-0.9-1.9-1.9S73.1,60.8,74.1,60.8z M5.7,64.6c-1,0-1.9-0.9-1.9-1.9s0.9-1.9,1.9-1.9s1.9,0.9,1.9,1.9
				S6.7,64.6,5.7,64.6z M5.7,79.8c-1,0-1.9-0.9-1.9-1.9S4.7,76,5.7,76s1.9,0.9,1.9,1.9S6.7,79.8,5.7,79.8z M5.7,95
				c-1,0-1.9-0.9-1.9-1.9s0.9-1.9,1.9-1.9s1.9,0.9,1.9,1.9S6.7,95,5.7,95z M55.1,41.8c1,0,1.9,0.9,1.9,1.9c0,1-0.9,1.9-1.9,1.9
				s-1.9-0.9-1.9-1.9C53.2,42.7,54.1,41.8,55.1,41.8z M39.9,41.8c1,0,1.9,0.9,1.9,1.9c0,1-0.9,1.9-1.9,1.9S38,44.7,38,43.7
				C38,42.7,38.9,41.8,39.9,41.8z M24.7,41.8c1,0,1.9,0.9,1.9,1.9c0,1-0.9,1.9-1.9,1.9s-1.9-0.9-1.9-1.9
				C22.8,42.7,23.7,41.8,24.7,41.8z M24.7,114c-1,0-1.9-0.9-1.9-1.9s0.9-1.9,1.9-1.9s1.9,0.9,1.9,1.9S25.7,114,24.7,114z M39.9,114
				c-1,0-1.9-0.9-1.9-1.9s0.9-1.9,1.9-1.9s1.9,0.9,1.9,1.9S40.9,114,39.9,114z M55.1,114c-1,0-1.9-0.9-1.9-1.9s0.9-1.9,1.9-1.9
				s1.9,0.9,1.9,1.9S56.2,114,55.1,114z M57,95H22.8V60.8H57V95z M109.2,30.4L109.2,30.4c-0.7-2.7-1.8-5.4-3.3-7.8l6.1-6.1
				L101.3,5.8l-6.1,6.1c-2.5-1.5-5.1-2.5-7.8-3.3V0H72.2v8.6c-2.7,0.7-5.4,1.8-7.8,3.3l-6.1-6.1L47.6,16.5l6.1,6.1
				c-1.5,2.5-2.5,5.1-3.3,7.8h-6.7v3.8h9.7l0.3-1.5c0.7-3.3,2-6.5,3.9-9.3l0.9-1.3l-5.5-5.5l5.4-5.4l5.5,5.5l1.3-0.9
				c2.9-1.9,6-3.2,9.3-3.9l1.5-0.3V3.8h7.6v7.8l1.5,0.3c3.3,0.7,6.5,2,9.3,3.9l1.3,0.9l5.5-5.5l5.4,5.4l-5.5,5.5l0.9,1.3
				c1.9,2.9,3.2,6,3.9,9.3l0.3,1.5h7.8v7.6h-7.8l-0.3,1.5c-0.7,3.3-2,6.5-3.9,9.3l-0.9,1.3l5.5,5.5l-5.4,5.4l-5.5-5.5l-1.3,0.9
				c-2.9,1.9-6,3.2-9.3,3.9l-1.5,0.3v9.7h3.8v-6.7c2.7-0.7,5.4-1.8,7.8-3.3l6.1,6.1L112,59.5l-6.1-6.1c1.5-2.5,2.5-5.1,3.3-7.8h8.6
				V30.4H109.2z M79.8,53.2V57c10.5,0,19-8.5,19-19s-8.5-19-19-19c-10.5,0-19,8.5-19,19h3.8c0-8.4,6.8-15.2,15.2-15.2
				C88.2,22.8,95,29.6,95,38C95,46.4,88.2,53.2,79.8,53.2z M53.2,64.6H26.6v3.8h26.6V64.6z M49.4,91.2h3.8v-3.8h-3.8V91.2z
				 M45.6,87.4h-19v3.8h19V87.4z M69.9,112.9l0.8,3.7c23.2-4.7,41.2-22.7,45.9-45.9l-3.7-0.8C108.5,91.6,91.6,108.5,69.9,112.9z
				 M47.9,4.9l-0.8-3.7C23.9,5.9,5.9,23.9,1.2,47.1l3.7,0.8C9.3,26.2,26.2,9.3,47.9,4.9z"/>
		</g>
	</g>
	<path class="st2" d="M1.2,47.1l3.7,0.8c7.8-37.2,43-43,43-43l-0.8-3.7C6.8,10.2,1.2,47.1,1.2,47.1z"/>
	<path class="st2" d="M56.3,119.8c-0.4,0.1-0.7,0.2-1,0.2C55.6,119.9,55.9,119.8,56.3,119.8z"/>
	<path class="st2" d="M58.2,119.3c-0.4,0.1-0.7,0.2-1,0.2C57.5,119.5,57.9,119.4,58.2,119.3z"/>
	<path class="st2" d="M69.9,112.8l0.8,3.7c40.3-9,45.9-45.9,45.9-45.9l-3.7-0.8C105.1,107.1,69.9,112.8,69.9,112.8z"/>
	<path class="st2" d="M67.8,117.2c0.3-0.1,0.6-0.1,0.9-0.2C68.3,117.1,68,117.1,67.8,117.2z"/>
	<path class="st2" d="M60.3,118.9c-0.4,0.1-0.7,0.2-1.1,0.2C59.5,119,59.9,119,60.3,118.9z"/>
	<path class="st2" d="M61.9,118.5c-0.3,0.1-0.6,0.1-0.8,0.2C61.3,118.6,61.6,118.6,61.9,118.5z"/>
	<path class="st2" d="M63,118.3c-0.4,0.1-0.8,0.2-1.1,0.3C62.3,118.4,62.6,118.3,63,118.3z"/>
	<path class="st2" d="M67.8,117.2c-0.4,0.1-0.9,0.2-1.4,0.3C66.8,117.4,67.3,117.3,67.8,117.2z"/>
	<path class="st2" d="M66.4,117.5c-0.3,0.1-0.6,0.1-1,0.2C65.7,117.7,66,117.6,66.4,117.5z"/>
	<rect x="49.4" y="87.4" class="st3" width="3.8" height="3.8"/>
	<rect x="26.6" y="87.4" class="st3" width="19" height="3.8"/>
	<rect x="26.6" y="64.6" class="st3" width="26.6" height="3.8"/>
</g>
</svg>
