<?xml version="1.0" encoding="utf-8"?>
<!-- Generator: Adobe Illustrator 21.1.0, SVG Export Plug-In . SVG Version: 6.00 Build 0)  -->
<svg version="1.1" id="Forma_1_1_" xmlns="http://www.w3.org/2000/svg" xmlns:xlink="http://www.w3.org/1999/xlink" x="0px" y="0px"
	 viewBox="0 0 144 144" style="enable-background:new 0 0 144 144;" xml:space="preserve">
<style type="text/css">
	.st0{fill-rule:evenodd;clip-rule:evenodd;fill:#282828;}
	.st1{fill-rule:evenodd;clip-rule:evenodd;fill:#FF5B22;}
	.st2{fill-rule:evenodd;clip-rule:evenodd;fill:none;stroke:#FF3600;stroke-width:16;stroke-miterlimit:10;}
</style>
<g id="Forma_1">
	<g>
		<path class="st0" d="M62.4,50.4c1.3,0,2.4,1.1,2.4,2.4h4.8c0-4-3.2-7.2-7.2-7.2c-4,0-7.2,3.2-7.2,7.2H60
			C60,51.5,61.1,50.4,62.4,50.4z M81.6,50.4c1.3,0,2.4,1.1,2.4,2.4h4.8c0-4-3.2-7.2-7.2-7.2s-7.2,3.2-7.2,7.2h4.8
			C79.2,51.5,80.3,50.4,81.6,50.4z M72,110.4c-5.3,0-9.6,4.3-9.6,9.6s4.3,9.6,9.6,9.6c5.3,0,9.6-4.3,9.6-9.6S77.3,110.4,72,110.4z
			 M72,124.8c-2.6,0-4.8-2.2-4.8-4.8s2.2-4.8,4.8-4.8s4.8,2.2,4.8,4.8S74.6,124.8,72,124.8z M129.6,139.2V108c0-19.9-16.1-36-36-36
			H91c0.9-0.8,1.7-1.6,2.4-2.4H96c6.6,0,12-5.4,12-12v-4.2c2.9-1.9,4.8-5.2,4.8-9c0-3.7-1.9-7.1-4.8-9C107.7,15.8,91.7,0,72,0
			C52.3,0,36.3,15.8,36,35.4c-2.9,1.9-4.8,5.2-4.8,9c0,6,4.8,10.8,10.8,10.8h1.6c1.1,6.7,4.5,12.5,9.4,16.8h-2.6
			c-19.9,0-36,16.1-36,36v31.2H0v4.8h144v-4.8H129.6z M103.2,57.6c0,3.6-2.7,6.6-6.2,7.1c1.7-2.9,2.8-6.1,3.4-9.5h1.6
			c0.4,0,0.8-0.1,1.2-0.1V57.6z M108,44.4c0,3.3-2.7,6-6,6h-1.2v-12h1.2C105.3,38.4,108,41.1,108,44.4z M43.2,50.4H42
			c-3.3,0-6-2.7-6-6c0-3.3,2.7-6,6-6h1.2V50.4z M42,33.6c-0.4,0-0.7,0.1-1.1,0.1C42.1,17.6,55.6,4.8,72,4.8
			c16.4,0,29.9,12.8,31.1,28.9c-0.4,0-0.7-0.1-1.1-0.1h-1.6C98.1,20,86.2,9.6,72,9.6c-14.2,0-26.1,10.4-28.4,24H42z M96,38.3
			C78.7,37.7,67.2,30.6,67.2,24c0-1.3-1.1-2.4-2.4-2.4s-2.4,1.1-2.4,2.4c0,6-6.2,11-14.3,11.8c1.3-12,11.5-21.4,23.9-21.4
			C85.2,14.4,96,25.1,96,38.3z M48,50.4v-9.7c7.5-0.7,13.9-4.3,17-9.3c5,6.7,16.8,11.3,31,11.8v7.2c0,5.4-1.8,10.4-4.8,14.4H72v4.8
			h14.3c-1.4,1-2.9,1.9-4.4,2.6c-6.3,2.9-13.5,2.9-19.8,0C53.8,68.5,48,60.1,48,50.4z M64.6,78.2c2.4,0.6,4.9,1,7.4,1
			c2.6,0,5-0.4,7.4-1L72,93L64.6,78.2z M68.1,96h-4.2l-9.6-19.2h4.2L68.1,96z M85.5,76.8h4.2L80.1,96h-4.2L85.5,76.8z M26.4,108
			v31.2h-7.2V108c0-16.7,13.2-30.4,29.8-31.1L58.5,96H38.4C31.8,96,26.4,101.4,26.4,108z M112.8,139.2H31.2V108c0-4,3.2-7.2,7.2-7.2
			h67.2c4,0,7.2,3.2,7.2,7.2V139.2z M124.8,139.2h-7.2V108c0-6.6-5.4-12-12-12H85.5L95,76.9c16.5,0.8,29.8,14.4,29.8,31.1V139.2z
			 M103.2,134.4h4.8v-16.8h-4.8V134.4z M103.2,112.8h4.8V108h-4.8V112.8z M129.6,21.6h-4.8v4.8h4.8V21.6z M129.6,31.2h-4.8V36h4.8
			V31.2z M129.6,40.8h-4.8v4.8h4.8V40.8z M19.2,50.4h-4.8v4.8h4.8V50.4z M19.2,60h-4.8v4.8h4.8V60z M19.2,69.6h-4.8v4.8h4.8V69.6z"
			/>
	</g>
</g>
<rect x="14.4" y="50.4" class="st1" width="4.8" height="4.8"/>
<rect x="14.4" y="60" class="st1" width="4.8" height="4.8"/>
<rect x="14.4" y="69.6" class="st1" width="4.8" height="4.8"/>
<rect x="124.8" y="21.6" class="st1" width="4.8" height="4.8"/>
<rect x="124.8" y="31.2" class="st1" width="4.8" height="4.8"/>
<rect x="124.8" y="40.8" class="st1" width="4.8" height="4.8"/>
<rect x="103.2" y="108" class="st1" width="4.8" height="4.8"/>
<rect x="103.2" y="117.6" class="st1" width="4.8" height="16.8"/>
<circle class="st2" cx="72" cy="120" r="7.2"/>
</svg>
