<?xml version="1.0" encoding="utf-8"?>
<!-- Generator: Adobe Illustrator 21.1.0, SVG Export Plug-In . SVG Version: 6.00 Build 0)  -->
<svg version="1.1" id="Layer_1" xmlns="http://www.w3.org/2000/svg" xmlns:xlink="http://www.w3.org/1999/xlink" x="0px" y="0px"
	 viewBox="0 0 270.1 56.3" style="enable-background:new 0 0 270.1 56.3;" xml:space="preserve">
<style type="text/css">
	.st0{fill:url(#SVGID_1_);}
	.st1{fill:url(#SVGID_2_);}
	.st2{fill:url(#SVGID_3_);}
</style>
<linearGradient id="SVGID_1_" gradientUnits="userSpaceOnUse" x1="0" y1="761.9161" x2="59.3169" y2="761.9161" gradientTransform="matrix(1 0 0 -1 0 784.2)">
	<stop  offset="0" style="stop-color:#F15D2B"/>
	<stop  offset="1" style="stop-color:#F7901E"/>
</linearGradient>
<polygon class="st0" points="0,3.1 0,41.4 12.3,41.4 23.4,22.3 23.4,41.4 35.5,41.4 59.3,3.1 44.9,3.1 32.6,21.8 32.6,3.1 22.1,3.1 
	12.5,21.5 12.6,3.1 "/>
<linearGradient id="SVGID_2_" gradientUnits="userSpaceOnUse" x1="40.0116" y1="761.9554" x2="75.4865" y2="761.9554" gradientTransform="matrix(1 0 0 -1 0 784.2)">
	<stop  offset="0" style="stop-color:#A7A2A0"/>
	<stop  offset="1" style="stop-color:#A7A2A0"/>
</linearGradient>
<polygon class="st1" points="75.5,3.1 70.3,18.1 62.2,18.1 55,41.4 40,41.4 42.8,32 61.2,3.1 "/>
<linearGradient id="SVGID_3_" gradientUnits="userSpaceOnUse" x1="34.0478" y1="773.9189" x2="42.8134" y2="773.9189" gradientTransform="matrix(1 0 0 -1 0 784.2)">
	<stop  offset="0" style="stop-color:#A7A2A0"/>
	<stop  offset="1" style="stop-color:#A7A2A0"/>
</linearGradient>
<polygon class="st2" points="34,17.4 34,3.2 42.8,3.2 "/>
<g>
	<path d="M119.7,41.2h-6.7l-9.1-31.8l-9.4,31.8h-6.7L76,3H82l9.5,32.8L101.1,3h6.1l9.5,32.8L126.3,3h5.8L119.7,41.2z"/>
	<path d="M137.5,8V2.4h5.3V8H137.5z M137.5,41.2V12.7h5.3v28.5H137.5z"/>
	<path d="M156.1,41.2c-2.4,0-3.5-1.4-3.5-4V0h5.3v35.9c0,1.1,0.2,2.2,2.2,2.2h2.4v3.2L156.1,41.2L156.1,41.2z"/>
	<path d="M171.6,41.2c-2.4,0-3.5-1.4-3.5-4V0h5.3v35.9c0,1.1,0.2,2.2,2.2,2.2h2.4v3.2L171.6,41.2L171.6,41.2z"/>
	<path d="M198.4,7v34.2h-5.8V7h-13V3h31.6v4H198.4z"/>
	<path d="M236,32.2c0,9.1-5.1,9.6-13,9.6c-8,0-13-0.5-13-9.6v-9.9c0-9.7,5.2-10.2,13-10.2s13,0.5,13,10.2V32.2z M230.7,21.1
		c0-5.1-2.4-5.5-7.7-5.5s-7.7,0.5-7.7,5.5v12.3c0,4.5,2.5,5.1,7.7,5.1s7.7-0.5,7.7-5.1V21.1z"/>
	<path d="M270.1,33.2c0,6.8-5.6,8.7-11.3,8.7c-4.8,0-9-0.6-9.5-3.2c0,2.2,0.1,4.5,0.1,6.8v8.1h-5.3V22c0-8.8,5.3-9.9,12.7-9.9
		c7.2,0,13.3,0.6,13.3,9.3V33.2z M264.7,20.9c0-4.9-3-5.4-7.6-5.4c-4.6,0-7.7,0.5-7.7,5.4v11.8c0,5.2,3.8,5.7,8.2,5.7
		c4.6,0,7.1-0.2,7.1-5.7V20.9z"/>
</g>
<g>
	<path d="M0.5,53.4l1.8-8.5h1.3l-1.6,7.6h4.2l-0.2,0.9L0.5,53.4L0.5,53.4z"/>
	<path d="M20.6,50.5l-0.2,1c0,0.2-0.1,0.3-0.1,0.5c0,0.6,0.4,0.8,1.4,0.8c1.2,0,1.5-0.3,1.6-0.9h1.2c-0.3,1.1-0.7,1.7-2.9,1.7
		c-1.8,0-2.5-0.5-2.5-1.6c0-0.2,0-0.4,0.1-0.7l0.5-2.3c0.4-1.9,1.2-2,3.2-2c1.5,0,2.3,0.5,2.3,1.5c0,0.2,0,0.4-0.1,0.6l-0.3,1.4
		H20.6z M24,48.7c0-0.1,0-0.2,0-0.2c0-0.5-0.4-0.7-1.3-0.7c-1.1,0-1.6,0.1-1.8,1.1l-0.2,0.9h3.1L24,48.7z"/>
	<path d="M42.1,53.4l0.1-0.8c-0.3,0.7-1.2,0.9-2.2,0.9c-1.4,0-2.2-0.4-2.2-1.5c0-0.2,0-0.5,0.1-0.7l0.5-2.3c0.4-2,1.3-2.1,3.4-2.1
		c0.6,0,1.3,0.1,1.5,0.7l0.1-0.6h1.1l-1.3,6.3H42.1z M42.9,49c0.1-0.2,0.1-0.4,0.1-0.6c0-0.6-0.4-0.8-1.4-0.8c-1.6,0-1.7,0.3-2,1.3
		l-0.5,2.5c0,0.2-0.1,0.4-0.1,0.5c0,0.7,0.5,0.7,1.4,0.7c1.3,0,1.7-0.3,1.9-1L42.9,49z"/>
	<path d="M61.2,48c-1.1,0-1.9,0.3-2.1,1.3l-0.9,4.2H57l1.3-6.3h1.1l-0.2,1c0.3-0.7,1.3-1.2,2.3-1.2h0.2l-0.2,1H61.2z"/>
	<path d="M77.7,53.4l1-4.6c0-0.1,0-0.2,0-0.3c0-0.4-0.2-0.8-1.2-0.8c-1.3,0-1.8,0.3-2,1l-1,4.6h-1.2l1.3-6.3h1.2l-0.2,0.8
		c0.3-0.7,1.2-0.9,2.2-0.9c1.4,0,2,0.5,2,1.4c0,0.2,0,0.3-0.1,0.5l-1,4.6L77.7,53.4L77.7,53.4z"/>
	<path d="M100.4,50.8H97l-1.4,2.6h-1.4l4.9-8.5h1.6l1.3,8.5h-1.3L100.4,50.8z M97.5,50h2.8l-0.5-4L97.5,50z"/>
	<path d="M119.1,53.4l1-4.6c0-0.1,0-0.2,0-0.3c0-0.4-0.2-0.8-1.2-0.8c-1.3,0-1.8,0.3-2,1l-1,4.6h-1.2l1.3-6.3h1.2l-0.2,0.8
		c0.3-0.7,1.2-0.9,2.2-0.9c1.4,0,2,0.5,2,1.4c0,0.2,0,0.3-0.1,0.5l-1,4.6L119.1,53.4L119.1,53.4z"/>
	<path d="M136.2,54.3c-0.9,1.5-1.2,2-2.5,2c-0.2,0-0.5,0-0.6-0.1l0.2-0.8c0.1,0,0.3,0.1,0.4,0.1c0.6,0,0.8-0.2,1.4-1.2l0.5-0.9
		l-1.1-6.4h1.2l0.7,5.2l2.7-5.2h1.2L136.2,54.3z"/>
	<path d="M158.7,53.4h-1.4l-0.3-5.1l-2.5,5.1h-1.4l-0.7-6.3h1.2l0.4,5.2h0.1l2.5-5.2h1.3l0.3,5.2h0.1l2.6-5.2h1.2L158.7,53.4z"/>
	<path d="M176.1,47.8c0.4-0.6,1.2-0.8,2.1-0.8c1.4,0,2,0.6,2,1.4c0,0.1,0,0.3-0.1,0.5l-1,4.6H178l1-4.6c0-0.1,0-0.2,0-0.3
		c0-0.4-0.2-0.8-1.2-0.8c-1.2,0-1.8,0.2-1.9,0.9l-1,4.8h-1.2l2-9.2h1.2L176.1,47.8z"/>
	<path d="M194.6,50.5l-0.2,1c0,0.2-0.1,0.3-0.1,0.5c0,0.6,0.4,0.8,1.4,0.8c1.2,0,1.5-0.3,1.6-0.9h1.2c-0.3,1.1-0.7,1.7-2.9,1.7
		c-1.8,0-2.5-0.5-2.5-1.6c0-0.2,0-0.4,0.1-0.7l0.5-2.3c0.4-1.9,1.2-2,3.2-2c1.5,0,2.3,0.5,2.3,1.5c0,0.2,0,0.4-0.1,0.6l-0.3,1.4
		H194.6z M198.1,48.7c0-0.1,0-0.2,0-0.2c0-0.5-0.4-0.7-1.3-0.7c-1.1,0-1.6,0.1-1.8,1.1l-0.2,0.9h3.1L198.1,48.7z"/>
	<path d="M215.9,48c-1.1,0-1.9,0.3-2.1,1.3l-0.9,4.2h-1.2l1.3-6.3h1.1l-0.2,1c0.3-0.7,1.3-1.2,2.3-1.2h0.2l-0.2,1H215.9z"/>
	<path d="M229.7,50.5l-0.2,1c0,0.2-0.1,0.3-0.1,0.5c0,0.6,0.4,0.8,1.4,0.8c1.2,0,1.5-0.3,1.6-0.9h1.2c-0.3,1.1-0.7,1.7-2.9,1.7
		c-1.8,0-2.5-0.5-2.5-1.6c0-0.2,0-0.4,0.1-0.7l0.5-2.3c0.4-1.9,1.2-2,3.2-2c1.5,0,2.3,0.5,2.3,1.5c0,0.2,0,0.4-0.1,0.6l-0.3,1.4
		H229.7z M233.2,48.7c0-0.1,0-0.2,0-0.2c0-0.5-0.4-0.7-1.3-0.7c-1.1,0-1.6,0.1-1.8,1.1l-0.2,0.9h3.1L233.2,48.7z"/>
</g>
</svg>
