<?xml version="1.0" encoding="utf-8"?>
<!-- Generator: Adobe Illustrator 21.1.0, SVG Export Plug-In . SVG Version: 6.00 Build 0)  -->
<svg version="1.1" id="Layer_1" xmlns="http://www.w3.org/2000/svg" xmlns:xlink="http://www.w3.org/1999/xlink" x="0px" y="0px"
	 viewBox="0 0 65 65.2" style="enable-background:new 0 0 65 65.2;" xml:space="preserve">
<style type="text/css">
	.st0{fill:url(#SVGID_1_);}
	.st1{fill:url(#SVGID_2_);}
	.st2{fill:none;}
</style>
<linearGradient id="SVGID_1_" gradientUnits="userSpaceOnUse" x1="27.3536" y1="23.9494" x2="37.8143" y2="23.9494">
	<stop  offset="0" style="stop-color:#FFFFFF"/>
	<stop  offset="0" style="stop-color:#FF9315"/>
	<stop  offset="1" style="stop-color:#FF6625"/>
</linearGradient>
<path class="st0" d="M37.8,23.9c0,2.9-2.3,5.2-5.2,5.2c-2.9,0-5.2-2.3-5.2-5.2c0-2.9,2.3-5.2,5.2-5.2C35.5,18.7,37.8,21.1,37.8,23.9
	L37.8,23.9z M37.8,23.9"/>
<linearGradient id="SVGID_2_" gradientUnits="userSpaceOnUse" x1="0" y1="32.4888" x2="64.9775" y2="32.4888">
	<stop  offset="0" style="stop-color:#FFFFFF"/>
	<stop  offset="0" style="stop-color:#FF9315"/>
	<stop  offset="1" style="stop-color:#FF6625"/>
</linearGradient>
<path class="st1" d="M32.5,0C14.5,0,0,14.5,0,32.5C0,50.4,14.5,65,32.5,65C50.4,65,65,50.4,65,32.5C65,14.5,50.4,0,32.5,0L32.5,0z
	 M32.4,14.9C32.4,14.9,32.5,14.9,32.4,14.9c0.1,0,0.1,0,0.1,0C38,15,42.5,19.5,42.5,25c0,6.7-7.2,13.5-10,15.9
	c-0.2-0.2-0.4-0.3-0.6-0.5c0,0,0,0,0,0c-3.1-2.8-9.4-9.1-9.4-15.3C22.5,19.5,26.9,15,32.4,14.9L32.4,14.9z M32.6,50.3
	c-6,0-12.1-1.7-12.1-5c0-2.3,3-3.8,6.8-4.5c0.7,0.7,1.5,1.4,2.1,2c-4.2,0.5-6.7,1.8-6.7,2.6c0,1,3.7,2.8,9.8,2.8
	c6.1,0,9.8-1.8,9.8-2.8c0-0.8-2.6-2.2-6.9-2.6c0.6-0.6,1.3-1.2,2.1-2c4,0.7,7.1,2.2,7.1,4.6C44.7,48.6,38.6,50.3,32.6,50.3
	L32.6,50.3z M32.6,50.3"/>
<rect y="0.1" class="st2" width="64.9" height="65.2"/>
</svg>
