<?xml version="1.0" encoding="utf-8"?>
<!-- Generator: Adobe Illustrator 21.1.0, SVG Export Plug-In . SVG Version: 6.00 Build 0)  -->
<svg version="1.1" xmlns="http://www.w3.org/2000/svg" xmlns:xlink="http://www.w3.org/1999/xlink" x="0px" y="0px"
	 viewBox="0 0 1359.4 691.3" style="enable-background:new 0 0 1359.4 691.3;" xml:space="preserve">
<style type="text/css">
	.st0{fill:url(#SVGID_1_);}
	.st1{fill:url(#SVGID_2_);}
	.st2{fill:url(#SVGID_3_);}
</style>
<g id="Layer_1">
</g>
<g id="Layer_2">
	<linearGradient id="SVGID_1_" gradientUnits="userSpaceOnUse" x1="0" y1="346.4184" x2="1068.16" y2="346.4184">
		<stop  offset="0" style="stop-color:#F15D2B"/>
		<stop  offset="1" style="stop-color:#F7901E"/>
	</linearGradient>
	<polygon class="st0" points="0,1.5 0,691.3 221.5,691.3 422.1,346.4 422.1,691.3 638.6,691.3 1068.2,1.5 809.4,1.5 586.9,338.4 
		586.9,1.5 398.2,1.5 225.4,332.4 227,1.5 	"/>
	<linearGradient id="SVGID_2_" gradientUnits="userSpaceOnUse" x1="720.6171" y1="345.6725" x2="1359.3591" y2="345.6725">
		<stop  offset="0" style="stop-color:#A7A2A0"/>
		<stop  offset="1" style="stop-color:#A7A2A0"/>
	</linearGradient>
	<polygon class="st1" points="1359.4,0 1266.2,270.8 1119.2,270.8 990.1,691.3 720.6,691.3 770.1,521.1 1101.3,0 	"/>
</g>
<g id="Layer_3">
	<linearGradient id="SVGID_3_" gradientUnits="userSpaceOnUse" x1="613.183" y1="130.2953" x2="770.9905" y2="130.2953">
		<stop  offset="0" style="stop-color:#A7A2A0"/>
		<stop  offset="1" style="stop-color:#A7A2A0"/>
	</linearGradient>
	<polygon class="st2" points="613.2,258 613.2,2.5 771,2.5 	"/>
</g>
</svg>
